<?xml version="1.0" encoding="utf-8"?>
<!-- Generator: Adobe Illustrator 14.0.0, SVG Export Plug-In . SVG Version: 6.00 Build 43363)  -->
<!DOCTYPE svg PUBLIC "-//W3C//DTD SVG 1.1//EN" "http://www.w3.org/Graphics/SVG/1.1/DTD/svg11.dtd">
<svg version="1.1" id="레이어_1" xmlns="http://www.w3.org/2000/svg" xmlns:xlink="http://www.w3.org/1999/xlink" x="0px"
	 y="0px" width="1027.644px" height="233.485px" viewBox="0 0 1027.644 233.485" enable-background="new 0 0 1027.644 233.485"
	 xml:space="preserve">
<path id="패스_9531" fill="#000080" d="M227.902,211.283h-69.336v-36.186c34.226-9.798,59.45-44.826,59.45-86.03
	c0-3.725-0.218-7.537-0.544-11.111h10.43c32.871,0,59.56,29.957,59.56,66.66C287.462,181.32,260.773,211.283,227.902,211.283
	 M118.969,77.949h19.792v133.334h-19.785L118.969,77.949z M198.164,89.061c0.819,27.055-14.843,51.906-39.604,62.841V77.956h38.808
	c0.599,3.673,0.873,7.391,0.817,11.111 M69.445,155.707V22.223h69.309c22.091,0.629,41.979,13.549,51.533,33.477H89.25v100.008
	H69.445z M49.633,155.707H29.861V22.223h19.785L49.633,155.707z M227.902,55.699h-15.659C200.526,23.196,171.985,0,138.768,0H0
	v177.916h89.25v55.569h138.652c43.792,0,79.365-39.917,79.365-88.869C307.268,95.46,271.701,55.699,227.902,55.699"/>
<path id="패스_9532" fill="#000080" d="M423.09,155.551h11.513c14.509,0,17.348-10.894,17.348-39.434
	c0-20.977,0-39.435-16.558-39.435H423.09V155.551z M399.261,59.186h39.747c31.223,0,37.064,20.819,37.064,56.305
	c0,17.511,2.683,57.564-38.011,57.564h-38.808L399.261,59.186z"/>
<path id="패스_9533" fill="#000080" d="M532.391,81.115h-0.313l-10.894,49.21h22.727L532.391,81.115z M486.496,173.089
	l31.543-113.896h31.387l30.916,113.896H555.26l-6.311-25.238h-32.49l-6.461,25.238H486.496z"/>
<path id="패스_9534" fill="#000080" d="M591.535,173.089V59.192h62.14v17.504h-38.324v28.078h35.329v17.504h-35.329v33.279h39.584
	v17.531H591.535z"/>
<path id="패스_9535" fill="#000080" d="M694.688,155.551h11.513c14.509,0,17.348-10.894,17.348-39.434
	c0-20.977,0-39.435-16.564-39.435h-12.303L694.688,155.551z M670.859,59.186h39.747c31.229,0,37.064,20.819,37.064,56.305
	c0,17.511,2.683,57.564-38.011,57.564h-38.808L670.859,59.186z"/>
<path id="패스_9536" fill="#000080" d="M843.736,59.186v80.753c0,17.021-9.62,35.016-38.637,35.016
	c-26.186,0-38.808-13.563-38.808-35.016V59.186h23.829v79.181c0,14.039,5.991,19.561,14.665,19.561
	c10.41,0,15.142-6.938,15.142-19.561V59.186H843.736z"/>
<path id="패스_9537" fill="#000080" d="M862.037,116.124c0-30.127,0-58.831,39.271-58.831c24.286,0,34.042,13.405,33.123,37.854
	h-23.339c0-15.143-2.689-20.82-9.784-20.82c-13.405,0-15.142,12.616-15.142,41.797c0,29.18,1.736,41.796,15.142,41.796
	c11.044,0,10.566-14.195,10.894-23.189h23.496c0,30.44-12.14,40.217-34.383,40.217c-39.271,0-39.271-29.017-39.271-58.83"/>
<path id="패스_9538" fill="#000080" d="M1001.466,59.186h26.178l-31.863,51.097l31.863,62.772h-26.818L973.538,114.7h-0.313
	v58.389h-23.829V59.186h23.829v48.734h0.313L1001.466,59.186z"/>
</svg>
